<mxfile host="app.diagrams.net" agent="Mozilla/5.0 (Windows NT 10.0; Win64; x64) AppleWebKit/537.36 (KHTML, like Gecko) Chrome/134.0.0.0 Safari/537.36" version="26.1.3">
  <diagram name="Page-1" id="6XbPvLpcu0oKdKS8Du6A">
    <mxGraphModel dx="2074" dy="1132" grid="1" gridSize="10" guides="1" tooltips="1" connect="1" arrows="1" fold="1" page="1" pageScale="1" pageWidth="827" pageHeight="1169" math="0" shadow="0">
      <root>
        <mxCell id="0" />
        <mxCell id="1" parent="0" />
        <mxCell id="CqovPR83PLJDOkq2zzhU-4" value="MedMQCA Dataset (Train/Val/Test)" style="rounded=1;whiteSpace=wrap;html=1;fillColor=#e1d5e7;strokeColor=#9673a6;" vertex="1" parent="1">
          <mxGeometry x="360" y="220" width="120" height="60" as="geometry" />
        </mxCell>
        <mxCell id="CqovPR83PLJDOkq2zzhU-5" value="" style="endArrow=classic;html=1;rounded=0;exitX=0.5;exitY=1;exitDx=0;exitDy=0;" edge="1" parent="1" source="CqovPR83PLJDOkq2zzhU-4">
          <mxGeometry width="50" height="50" relative="1" as="geometry">
            <mxPoint x="390" y="600" as="sourcePoint" />
            <mxPoint x="420" y="360" as="targetPoint" />
          </mxGeometry>
        </mxCell>
        <mxCell id="CqovPR83PLJDOkq2zzhU-6" value="Preprocessing" style="rounded=0;whiteSpace=wrap;html=1;fillColor=#e1d5e7;strokeColor=#9673a6;" vertex="1" parent="1">
          <mxGeometry x="360" y="360" width="120" height="60" as="geometry" />
        </mxCell>
        <mxCell id="CqovPR83PLJDOkq2zzhU-8" value="Text Cleaning" style="rounded=0;whiteSpace=wrap;html=1;fillColor=#e1d5e7;strokeColor=#9673a6;" vertex="1" parent="1">
          <mxGeometry x="480" y="360" width="110" height="20" as="geometry" />
        </mxCell>
        <mxCell id="CqovPR83PLJDOkq2zzhU-9" value="Vector Embeddings" style="rounded=0;whiteSpace=wrap;html=1;fillColor=#e1d5e7;strokeColor=#9673a6;" vertex="1" parent="1">
          <mxGeometry x="480" y="380" width="110" height="20" as="geometry" />
        </mxCell>
        <mxCell id="CqovPR83PLJDOkq2zzhU-10" value="POS Tagging / NER" style="rounded=0;whiteSpace=wrap;html=1;fillColor=#e1d5e7;strokeColor=#9673a6;" vertex="1" parent="1">
          <mxGeometry x="480" y="400" width="110" height="20" as="geometry" />
        </mxCell>
        <mxCell id="CqovPR83PLJDOkq2zzhU-12" value="" style="endArrow=classic;html=1;rounded=0;exitX=0.5;exitY=1;exitDx=0;exitDy=0;" edge="1" parent="1">
          <mxGeometry width="50" height="50" relative="1" as="geometry">
            <mxPoint x="419.5" y="420" as="sourcePoint" />
            <mxPoint x="520" y="520" as="targetPoint" />
          </mxGeometry>
        </mxCell>
        <mxCell id="CqovPR83PLJDOkq2zzhU-13" value="" style="endArrow=classic;html=1;rounded=0;exitX=0.5;exitY=1;exitDx=0;exitDy=0;" edge="1" parent="1">
          <mxGeometry width="50" height="50" relative="1" as="geometry">
            <mxPoint x="419.5" y="420" as="sourcePoint" />
            <mxPoint x="320" y="520" as="targetPoint" />
          </mxGeometry>
        </mxCell>
        <mxCell id="CqovPR83PLJDOkq2zzhU-23" value="" style="edgeStyle=orthogonalEdgeStyle;rounded=0;orthogonalLoop=1;jettySize=auto;html=1;" edge="1" parent="1" source="CqovPR83PLJDOkq2zzhU-14" target="CqovPR83PLJDOkq2zzhU-18">
          <mxGeometry relative="1" as="geometry" />
        </mxCell>
        <mxCell id="CqovPR83PLJDOkq2zzhU-14" value="Baseline Model&lt;div&gt;(Traditional NLP)&amp;nbsp;&lt;/div&gt;" style="rounded=0;whiteSpace=wrap;html=1;fillColor=#dae8fc;strokeColor=#6c8ebf;" vertex="1" parent="1">
          <mxGeometry x="260" y="520" width="120" height="60" as="geometry" />
        </mxCell>
        <mxCell id="CqovPR83PLJDOkq2zzhU-15" value="LLM Setup" style="rounded=0;whiteSpace=wrap;html=1;fillColor=#d5e8d4;strokeColor=#82b366;" vertex="1" parent="1">
          <mxGeometry x="460" y="520" width="120" height="60" as="geometry" />
        </mxCell>
        <mxCell id="CqovPR83PLJDOkq2zzhU-17" value="" style="endArrow=classic;html=1;rounded=0;exitX=0.5;exitY=1;exitDx=0;exitDy=0;" edge="1" parent="1">
          <mxGeometry width="50" height="50" relative="1" as="geometry">
            <mxPoint x="319.5" y="580" as="sourcePoint" />
            <mxPoint x="319.5" y="660" as="targetPoint" />
          </mxGeometry>
        </mxCell>
        <mxCell id="CqovPR83PLJDOkq2zzhU-18" value="Feature Engineering&lt;div&gt;(TF-IDF, GloVe)&lt;/div&gt;" style="rounded=0;whiteSpace=wrap;html=1;fillColor=#dae8fc;strokeColor=#6c8ebf;" vertex="1" parent="1">
          <mxGeometry x="260" y="660" width="120" height="60" as="geometry" />
        </mxCell>
        <mxCell id="CqovPR83PLJDOkq2zzhU-19" value="" style="endArrow=classic;html=1;rounded=0;exitX=0.5;exitY=1;exitDx=0;exitDy=0;" edge="1" parent="1">
          <mxGeometry width="50" height="50" relative="1" as="geometry">
            <mxPoint x="319.5" y="720" as="sourcePoint" />
            <mxPoint x="319.5" y="800" as="targetPoint" />
          </mxGeometry>
        </mxCell>
        <mxCell id="CqovPR83PLJDOkq2zzhU-20" value="" style="endArrow=classic;html=1;rounded=0;exitX=0.5;exitY=1;exitDx=0;exitDy=0;" edge="1" parent="1">
          <mxGeometry width="50" height="50" relative="1" as="geometry">
            <mxPoint x="319.5" y="860" as="sourcePoint" />
            <mxPoint x="319.5" y="940" as="targetPoint" />
          </mxGeometry>
        </mxCell>
        <mxCell id="CqovPR83PLJDOkq2zzhU-21" value="Train Classifier&lt;div&gt;(SVM, Random Forest)&lt;/div&gt;" style="rounded=0;whiteSpace=wrap;html=1;fillColor=#dae8fc;strokeColor=#6c8ebf;" vertex="1" parent="1">
          <mxGeometry x="260" y="800" width="120" height="60" as="geometry" />
        </mxCell>
        <mxCell id="CqovPR83PLJDOkq2zzhU-22" value="Evaluate&lt;div&gt;(EM, F1, MRR)&lt;/div&gt;" style="rounded=0;whiteSpace=wrap;html=1;fillColor=#dae8fc;strokeColor=#6c8ebf;" vertex="1" parent="1">
          <mxGeometry x="260" y="940" width="120" height="60" as="geometry" />
        </mxCell>
        <mxCell id="CqovPR83PLJDOkq2zzhU-26" value="" style="endArrow=classic;html=1;rounded=0;exitX=0.5;exitY=1;exitDx=0;exitDy=0;" edge="1" parent="1">
          <mxGeometry width="50" height="50" relative="1" as="geometry">
            <mxPoint x="519.5" y="580" as="sourcePoint" />
            <mxPoint x="519.5" y="660" as="targetPoint" />
          </mxGeometry>
        </mxCell>
        <mxCell id="CqovPR83PLJDOkq2zzhU-28" value="LLM Strategy?" style="rhombus;whiteSpace=wrap;html=1;fillColor=#d5e8d4;strokeColor=#82b366;" vertex="1" parent="1">
          <mxGeometry x="460" y="660" width="120" height="80" as="geometry" />
        </mxCell>
        <mxCell id="CqovPR83PLJDOkq2zzhU-32" style="edgeStyle=orthogonalEdgeStyle;rounded=0;orthogonalLoop=1;jettySize=auto;html=1;" edge="1" parent="1" source="CqovPR83PLJDOkq2zzhU-29">
          <mxGeometry relative="1" as="geometry">
            <mxPoint x="520" y="800" as="targetPoint" />
            <Array as="points">
              <mxPoint x="520" y="740" />
              <mxPoint x="520" y="740" />
            </Array>
          </mxGeometry>
        </mxCell>
        <mxCell id="CqovPR83PLJDOkq2zzhU-29" value="Zero-shot Mistral-7B" style="rounded=0;whiteSpace=wrap;html=1;fillColor=#d5e8d4;strokeColor=#82b366;" vertex="1" parent="1">
          <mxGeometry x="460" y="800" width="120" height="60" as="geometry" />
        </mxCell>
        <mxCell id="CqovPR83PLJDOkq2zzhU-30" value="FLAN-T5&lt;div&gt;(Or maybe Llama-2/Mistral)&lt;/div&gt;" style="rounded=0;whiteSpace=wrap;html=1;fillColor=#d5e8d4;strokeColor=#82b366;" vertex="1" parent="1">
          <mxGeometry x="660" y="670" width="120" height="60" as="geometry" />
        </mxCell>
        <mxCell id="CqovPR83PLJDOkq2zzhU-33" value="" style="endArrow=classic;html=1;rounded=0;exitX=1;exitY=0.5;exitDx=0;exitDy=0;entryX=0;entryY=0.5;entryDx=0;entryDy=0;" edge="1" parent="1" source="CqovPR83PLJDOkq2zzhU-28" target="CqovPR83PLJDOkq2zzhU-30">
          <mxGeometry width="50" height="50" relative="1" as="geometry">
            <mxPoint x="620" y="650" as="sourcePoint" />
            <mxPoint x="620" y="730" as="targetPoint" />
          </mxGeometry>
        </mxCell>
        <mxCell id="CqovPR83PLJDOkq2zzhU-34" value="Load FLAN-T5 from Hugging Face" style="rounded=0;whiteSpace=wrap;html=1;fillColor=#d5e8d4;strokeColor=#82b366;" vertex="1" parent="1">
          <mxGeometry x="660" y="800" width="120" height="60" as="geometry" />
        </mxCell>
        <mxCell id="CqovPR83PLJDOkq2zzhU-38" value="" style="endArrow=classic;html=1;rounded=0;exitX=0.5;exitY=1;exitDx=0;exitDy=0;" edge="1" parent="1">
          <mxGeometry width="50" height="50" relative="1" as="geometry">
            <mxPoint x="719.5" y="730" as="sourcePoint" />
            <mxPoint x="720" y="800" as="targetPoint" />
          </mxGeometry>
        </mxCell>
        <mxCell id="CqovPR83PLJDOkq2zzhU-39" value="" style="endArrow=classic;html=1;rounded=0;exitX=0.5;exitY=1;exitDx=0;exitDy=0;" edge="1" parent="1">
          <mxGeometry width="50" height="50" relative="1" as="geometry">
            <mxPoint x="719.5" y="860" as="sourcePoint" />
            <mxPoint x="719.5" y="940" as="targetPoint" />
          </mxGeometry>
        </mxCell>
        <mxCell id="CqovPR83PLJDOkq2zzhU-40" value="Fine Tune on MedMCQA Train" style="rounded=0;whiteSpace=wrap;html=1;fillColor=#d5e8d4;strokeColor=#82b366;" vertex="1" parent="1">
          <mxGeometry x="660" y="940" width="120" height="60" as="geometry" />
        </mxCell>
        <mxCell id="CqovPR83PLJDOkq2zzhU-41" value="" style="endArrow=classic;html=1;rounded=0;exitX=0.5;exitY=1;exitDx=0;exitDy=0;" edge="1" parent="1">
          <mxGeometry width="50" height="50" relative="1" as="geometry">
            <mxPoint x="519.5" y="860" as="sourcePoint" />
            <mxPoint x="519.5" y="940" as="targetPoint" />
          </mxGeometry>
        </mxCell>
        <mxCell id="CqovPR83PLJDOkq2zzhU-42" value="Load Minstral-7B from Hugging Face" style="rounded=0;whiteSpace=wrap;html=1;fillColor=#d5e8d4;strokeColor=#82b366;" vertex="1" parent="1">
          <mxGeometry x="460" y="940" width="120" height="60" as="geometry" />
        </mxCell>
        <mxCell id="CqovPR83PLJDOkq2zzhU-44" value="" style="endArrow=classic;html=1;rounded=0;exitX=0.5;exitY=1;exitDx=0;exitDy=0;" edge="1" parent="1">
          <mxGeometry width="50" height="50" relative="1" as="geometry">
            <mxPoint x="519.5" y="1000" as="sourcePoint" />
            <mxPoint x="519.5" y="1080" as="targetPoint" />
          </mxGeometry>
        </mxCell>
        <mxCell id="CqovPR83PLJDOkq2zzhU-45" value="Prompt Engineering&amp;nbsp;" style="rounded=0;whiteSpace=wrap;html=1;fillColor=#d5e8d4;strokeColor=#82b366;" vertex="1" parent="1">
          <mxGeometry x="460" y="1080" width="120" height="60" as="geometry" />
        </mxCell>
        <mxCell id="CqovPR83PLJDOkq2zzhU-46" value="LLM Evaluation" style="rounded=0;whiteSpace=wrap;html=1;fillColor=#d5e8d4;strokeColor=#82b366;" vertex="1" parent="1">
          <mxGeometry x="660" y="1080" width="120" height="60" as="geometry" />
        </mxCell>
        <mxCell id="CqovPR83PLJDOkq2zzhU-47" value="" style="endArrow=classic;html=1;rounded=0;exitX=0.5;exitY=1;exitDx=0;exitDy=0;" edge="1" parent="1">
          <mxGeometry width="50" height="50" relative="1" as="geometry">
            <mxPoint x="719.5" y="1000" as="sourcePoint" />
            <mxPoint x="719.5" y="1080" as="targetPoint" />
          </mxGeometry>
        </mxCell>
        <mxCell id="CqovPR83PLJDOkq2zzhU-48" value="" style="endArrow=classic;html=1;rounded=0;entryX=0;entryY=0.5;entryDx=0;entryDy=0;" edge="1" parent="1" target="CqovPR83PLJDOkq2zzhU-46">
          <mxGeometry width="50" height="50" relative="1" as="geometry">
            <mxPoint x="580" y="1110" as="sourcePoint" />
            <mxPoint x="630" y="1060" as="targetPoint" />
          </mxGeometry>
        </mxCell>
        <mxCell id="CqovPR83PLJDOkq2zzhU-49" value="Compare Metrics&lt;div&gt;EM/F1/Time&lt;/div&gt;" style="shape=parallelogram;perimeter=parallelogramPerimeter;whiteSpace=wrap;html=1;fixedSize=1;fillColor=#f8cecc;strokeColor=#b85450;" vertex="1" parent="1">
          <mxGeometry x="360" y="1220" width="120" height="60" as="geometry" />
        </mxCell>
        <mxCell id="CqovPR83PLJDOkq2zzhU-51" value="" style="endArrow=none;html=1;rounded=0;entryX=0.5;entryY=1;entryDx=0;entryDy=0;" edge="1" parent="1" target="CqovPR83PLJDOkq2zzhU-46">
          <mxGeometry width="50" height="50" relative="1" as="geometry">
            <mxPoint x="720" y="1250" as="sourcePoint" />
            <mxPoint x="760" y="1150" as="targetPoint" />
          </mxGeometry>
        </mxCell>
        <mxCell id="CqovPR83PLJDOkq2zzhU-54" value="" style="endArrow=classic;html=1;rounded=0;entryX=1;entryY=0.5;entryDx=0;entryDy=0;" edge="1" parent="1" target="CqovPR83PLJDOkq2zzhU-49">
          <mxGeometry width="50" height="50" relative="1" as="geometry">
            <mxPoint x="720" y="1250" as="sourcePoint" />
            <mxPoint x="450" y="1240" as="targetPoint" />
          </mxGeometry>
        </mxCell>
        <mxCell id="CqovPR83PLJDOkq2zzhU-55" value="" style="endArrow=none;html=1;rounded=0;entryX=0.5;entryY=1;entryDx=0;entryDy=0;" edge="1" parent="1" target="CqovPR83PLJDOkq2zzhU-22">
          <mxGeometry width="50" height="50" relative="1" as="geometry">
            <mxPoint x="320" y="1250" as="sourcePoint" />
            <mxPoint x="370" y="1000" as="targetPoint" />
          </mxGeometry>
        </mxCell>
        <mxCell id="CqovPR83PLJDOkq2zzhU-56" value="" style="endArrow=classic;html=1;rounded=0;entryX=0;entryY=0.5;entryDx=0;entryDy=0;" edge="1" parent="1" target="CqovPR83PLJDOkq2zzhU-49">
          <mxGeometry width="50" height="50" relative="1" as="geometry">
            <mxPoint x="320" y="1250" as="sourcePoint" />
            <mxPoint x="370" y="1230" as="targetPoint" />
          </mxGeometry>
        </mxCell>
        <mxCell id="CqovPR83PLJDOkq2zzhU-59" value="Conclusion:&amp;nbsp;&lt;div&gt;Best Method&lt;/div&gt;" style="rounded=1;whiteSpace=wrap;html=1;fillColor=#f8cecc;strokeColor=#b85450;" vertex="1" parent="1">
          <mxGeometry x="354" y="1360" width="120" height="60" as="geometry" />
        </mxCell>
        <mxCell id="CqovPR83PLJDOkq2zzhU-61" value="" style="endArrow=classic;html=1;rounded=0;exitX=0.5;exitY=1;exitDx=0;exitDy=0;" edge="1" parent="1">
          <mxGeometry width="50" height="50" relative="1" as="geometry">
            <mxPoint x="414" y="1280" as="sourcePoint" />
            <mxPoint x="414" y="1360" as="targetPoint" />
          </mxGeometry>
        </mxCell>
        <mxCell id="CqovPR83PLJDOkq2zzhU-63" value="&lt;font style=&quot;font-size: 10px;&quot;&gt;Fine-tuned on 1x4080 GPU&lt;/font&gt;" style="text;html=1;align=center;verticalAlign=middle;resizable=0;points=[];autosize=1;strokeColor=none;fillColor=none;fontSize=8;" vertex="1" parent="1">
          <mxGeometry x="720" y="1000" width="150" height="30" as="geometry" />
        </mxCell>
      </root>
    </mxGraphModel>
  </diagram>
</mxfile>
